# xmcd
#
# Track frame offsets:
#	150
#	11980
#	24794
#	36840
#	50454
#	61422
#	75875
#	86523
#	99493
#	107657
#	117461
#	125461
#	135919
#	147407
#	161376
#	172681
#	182480
#	194812
#	208342
#
# Disc length: 2940 seconds
#
# Revision: 1
# Processed by: cddbd v1.5.2PL0 Copyright (c) Steve Scherf et al.
# Submitted via: audiograbber 1.83.01
#
DISCID=f80b7a13
DTITLE=Dean Martin - Country Dino
DYEAR=1900
DGENRE=Country
TTITLE0=I´m So Lonesome I Could Cry
TTITLE1=Face In A Crowd
TTITLE2=Things
TTITLE3=Room Full Of Roses
TTITLE4=I Walk The Line
TTITLE5=My Heart Cries For You
TTITLE6=Any Time
TTITLE7=Country Dino - 08 - Shutters And Boards
TTITLE8=Blue, Blue Day
TTITLE9=Singing The Blues
TTITLE10=Hey, Good Lookin'
TTITLE11=Ain´t Gonna Try Anymore
TTITLE12=I´m Gonna Change Everything
TTITLE13=Candy Kisses
TTITLE14=Rockin´ Alone (In An Old Rocking Chair)
TTITLE15=Just A Little Lovin'
TTITLE16=I Can´t Help It (If I´m Still In Love With You)
TTITLE17=My Sugar´s Gone
TTITLE18=Corrine, Corrina
EXTD=
EXTT0=
EXTT1=
EXTT2=
EXTT3=
EXTT4=
EXTT5=
EXTT6=
EXTT7=
EXTT8=
EXTT9=
EXTT10=
EXTT11=
EXTT12=
EXTT13=
EXTT14=
EXTT15=
EXTT16=
EXTT17=
EXTT18=
PLAYORDER=
